<?xml version="1.0" encoding="UTF-8"?>
<svg width="700pt" height="700pt" version="1.1" viewBox="0 0 700 700" xmlns="http://www.w3.org/2000/svg" xmlns:xlink="http://www.w3.org/1999/xlink">
 <defs>
  <symbol id="v" overflow="visible">
   <path d="m18.766-1.125c-0.96875 0.5-1.9805 0.875-3.0312 1.125-1.043 0.25781-2.1367 0.39062-3.2812 0.39062-3.3984 0-6.0898-0.94531-8.0781-2.8438-1.9922-1.9062-2.9844-4.4844-2.9844-7.7344 0-3.2578 0.99219-5.8359 2.9844-7.7344 1.9883-1.9062 4.6797-2.8594 8.0781-2.8594 1.1445 0 2.2383 0.13281 3.2812 0.39062 1.0508 0.25 2.0625 0.625 3.0312 1.125v4.2188c-0.98047-0.65625-1.9453-1.1406-2.8906-1.4531-0.94922-0.3125-1.9492-0.46875-3-0.46875-1.875 0-3.3516 0.60547-4.4219 1.8125-1.0742 1.1992-1.6094 2.8555-1.6094 4.9688 0 2.1055 0.53516 3.7617 1.6094 4.9688 1.0703 1.1992 2.5469 1.7969 4.4219 1.7969 1.0508 0 2.0508-0.14844 3-0.45312 0.94531-0.3125 1.9102-0.80078 2.8906-1.4688z"/>
  </symbol>
  <symbol id="b" overflow="visible">
   <path d="m13.734-11.141c-0.4375-0.19531-0.87109-0.34375-1.2969-0.4375-0.41797-0.10156-0.83984-0.15625-1.2656-0.15625-1.2617 0-2.2305 0.40625-2.9062 1.2188-0.67969 0.80469-1.0156 1.9531-1.0156 3.4531v7.0625h-4.8906v-15.312h4.8906v2.5156c0.625-1 1.3438-1.7266 2.1562-2.1875 0.82031-0.46875 1.8008-0.70312 2.9375-0.70312 0.16406 0 0.34375 0.011719 0.53125 0.03125 0.19531 0.011719 0.47656 0.039062 0.84375 0.078125z"/>
  </symbol>
  <symbol id="a" overflow="visible">
   <path d="m17.641-7.7031v1.4062h-11.453c0.125 1.1484 0.53906 2.0078 1.25 2.5781 0.70703 0.57422 1.7031 0.85938 2.9844 0.85938 1.0312 0 2.082-0.14844 3.1562-0.45312 1.082-0.3125 2.1914-0.77344 3.3281-1.3906v3.7656c-1.1562 0.4375-2.3125 0.76562-3.4688 0.98438-1.1562 0.22656-2.3125 0.34375-3.4688 0.34375-2.7734 0-4.9297-0.70312-6.4688-2.1094-1.5312-1.4062-2.2969-3.3789-2.2969-5.9219 0-2.5 0.75391-4.4609 2.2656-5.8906 1.5078-1.4375 3.582-2.1562 6.2188-2.1562 2.4062 0 4.332 0.73047 5.7812 2.1875 1.4453 1.4492 2.1719 3.3828 2.1719 5.7969zm-5.0312-1.625c0-0.92578-0.27344-1.6719-0.8125-2.2344-0.54297-0.57031-1.25-0.85938-2.125-0.85938-0.94922 0-1.7188 0.26562-2.3125 0.79688s-0.96484 1.2969-1.1094 2.2969z"/>
  </symbol>
  <symbol id="k" overflow="visible">
   <path d="m9.2188-6.8906c-1.0234 0-1.793 0.17188-2.3125 0.51562-0.51172 0.34375-0.76562 0.85547-0.76562 1.5312 0 0.625 0.20703 1.1172 0.625 1.4688 0.41406 0.34375 0.98828 0.51562 1.7188 0.51562 0.92578 0 1.7031-0.32812 2.3281-0.98438 0.63281-0.66406 0.95312-1.4922 0.95312-2.4844v-0.5625zm7.4688-1.8438v8.7344h-4.9219v-2.2656c-0.65625 0.92969-1.3984 1.6055-2.2188 2.0312-0.82422 0.41406-1.8242 0.625-3 0.625-1.5859 0-2.8711-0.45703-3.8594-1.375-0.99219-0.92578-1.4844-2.1289-1.4844-3.6094 0-1.7891 0.61328-3.1016 1.8438-3.9375 1.2383-0.84375 3.1797-1.2656 5.8281-1.2656h2.8906v-0.39062c0-0.76953-0.30859-1.332-0.92188-1.6875-0.61719-0.36328-1.5703-0.54688-2.8594-0.54688-1.0547 0-2.0312 0.10547-2.9375 0.3125-0.89844 0.21094-1.7305 0.52344-2.5 0.9375v-3.7344c1.0391-0.25 2.0859-0.44141 3.1406-0.57812 1.0625-0.13281 2.125-0.20312 3.1875-0.20312 2.7578 0 4.75 0.54688 5.9688 1.6406 1.2266 1.0859 1.8438 2.8555 1.8438 5.3125z"/>
  </symbol>
  <symbol id="d" overflow="visible">
   <path d="m7.7031-19.656v4.3438h5.0469v3.5h-5.0469v6.5c0 0.71094 0.14062 1.1875 0.42188 1.4375s0.83594 0.375 1.6719 0.375h2.5156v3.5h-4.1875c-1.9375 0-3.3125-0.39844-4.125-1.2031-0.80469-0.8125-1.2031-2.1797-1.2031-4.1094v-6.5h-2.4219v-3.5h2.4219v-4.3438z"/>
  </symbol>
  <symbol id="j" overflow="visible">
   <path d="m12.766-13.078v-8.2031h4.9219v21.281h-4.9219v-2.2188c-0.66797 0.90625-1.4062 1.5703-2.2188 1.9844s-1.7578 0.625-2.8281 0.625c-1.8867 0-3.4336-0.75-4.6406-2.25-1.2109-1.5-1.8125-3.4258-1.8125-5.7812 0-2.3633 0.60156-4.2969 1.8125-5.7969 1.207-1.5 2.7539-2.25 4.6406-2.25 1.0625 0 2 0.21484 2.8125 0.64062 0.82031 0.42969 1.5664 1.0859 2.2344 1.9688zm-3.2188 9.9219c1.0391 0 1.8359-0.37891 2.3906-1.1406 0.55078-0.76953 0.82812-1.8828 0.82812-3.3438 0-1.457-0.27734-2.5664-0.82812-3.3281-0.55469-0.76953-1.3516-1.1562-2.3906-1.1562-1.043 0-1.8398 0.38672-2.3906 1.1562-0.55469 0.76172-0.82812 1.8711-0.82812 3.3281 0 1.4609 0.27344 2.5742 0.82812 3.3438 0.55078 0.76172 1.3477 1.1406 2.3906 1.1406z"/>
  </symbol>
  <symbol id="i" overflow="visible">
   <path d="m10.5-3.1562c1.0508 0 1.8516-0.37891 2.4062-1.1406 0.55078-0.76953 0.82812-1.8828 0.82812-3.3438 0-1.457-0.27734-2.5664-0.82812-3.3281-0.55469-0.76953-1.3555-1.1562-2.4062-1.1562-1.0547 0-1.8594 0.38672-2.4219 1.1562-0.55469 0.77344-0.82812 1.8828-0.82812 3.3281 0 1.4492 0.27344 2.5586 0.82812 3.3281 0.5625 0.77344 1.3672 1.1562 2.4219 1.1562zm-3.25-9.9219c0.67578-0.88281 1.4219-1.5391 2.2344-1.9688 0.82031-0.42578 1.7656-0.64062 2.8281-0.64062 1.8945 0 3.4453 0.75 4.6562 2.25 1.207 1.5 1.8125 3.4336 1.8125 5.7969 0 2.3555-0.60547 4.2812-1.8125 5.7812-1.2109 1.5-2.7617 2.25-4.6562 2.25-1.0625 0-2.0078-0.21094-2.8281-0.625-0.8125-0.42578-1.5586-1.0859-2.2344-1.9844v2.2188h-4.8906v-21.281h4.8906z"/>
  </symbol>
  <symbol id="h" overflow="visible">
   <path d="m0.34375-15.312h4.8906l4.125 10.391 3.5-10.391h4.8906l-6.4375 16.766c-0.64844 1.6953-1.4023 2.8828-2.2656 3.5625-0.86719 0.6875-2 1.0312-3.4062 1.0312h-2.8438v-3.2188h1.5312c0.83203 0 1.4375-0.13672 1.8125-0.40625 0.38281-0.26172 0.67969-0.73047 0.89062-1.4062l0.14062-0.42188z"/>
  </symbol>
  <symbol id="g" overflow="visible">
   <path d="m0.14062-20.406h18.812v3.9688h-6.7656v16.438h-5.2656v-16.438h-6.7812z"/>
  </symbol>
  <symbol id="c" overflow="visible">
   <path d="m9.6406-12.188c-1.0859 0-1.9141 0.39062-2.4844 1.1719-0.57422 0.78125-0.85938 1.9062-0.85938 3.375s0.28516 2.5938 0.85938 3.375c0.57031 0.77344 1.3984 1.1562 2.4844 1.1562 1.0625 0 1.875-0.38281 2.4375-1.1562 0.57031-0.78125 0.85938-1.9062 0.85938-3.375s-0.28906-2.5938-0.85938-3.375c-0.5625-0.78125-1.375-1.1719-2.4375-1.1719zm0-3.5c2.6328 0 4.6914 0.71484 6.1719 2.1406 1.4766 1.418 2.2188 3.3867 2.2188 5.9062 0 2.5117-0.74219 4.4805-2.2188 5.9062-1.4805 1.418-3.5391 2.125-6.1719 2.125-2.6484 0-4.7148-0.70703-6.2031-2.125-1.4922-1.4258-2.2344-3.3945-2.2344-5.9062 0-2.5195 0.74219-4.4883 2.2344-5.9062 1.4883-1.4258 3.5547-2.1406 6.2031-2.1406z"/>
  </symbol>
  <symbol id="f" overflow="visible">
   <path d="m16.547-12.766c0.61328-0.94531 1.3477-1.6719 2.2031-2.1719 0.85156-0.5 1.7891-0.75 2.8125-0.75 1.7578 0 3.0977 0.54688 4.0156 1.6406 0.92578 1.0859 1.3906 2.6562 1.3906 4.7188v9.3281h-4.9219v-7.9844-0.35938c0.007813-0.13281 0.015625-0.32031 0.015625-0.5625 0-1.082-0.16406-1.8633-0.48438-2.3438-0.3125-0.48828-0.82422-0.73438-1.5312-0.73438-0.92969 0-1.6484 0.38672-2.1562 1.1562-0.51172 0.76172-0.77344 1.8672-0.78125 3.3125v7.5156h-4.9219v-7.9844c0-1.6953-0.14844-2.7852-0.4375-3.2656-0.29297-0.48828-0.8125-0.73438-1.5625-0.73438-0.9375 0-1.6641 0.38672-2.1719 1.1562-0.51172 0.76172-0.76562 1.8594-0.76562 3.2969v7.5312h-4.9219v-15.312h4.9219v2.2344c0.60156-0.86328 1.2891-1.5156 2.0625-1.9531 0.78125-0.4375 1.6406-0.65625 2.5781-0.65625 1.0625 0 2 0.25781 2.8125 0.76562 0.8125 0.51172 1.4258 1.2305 1.8438 2.1562z"/>
  </symbol>
  <symbol id="u" overflow="visible">
   <path d="m2.5781-20.406h14.203v3.9688h-8.9531v3.7969h8.4219v3.9844h-8.4219v8.6562h-5.25z"/>
  </symbol>
  <symbol id="t" overflow="visible">
   <path d="m2.3594-15.312h4.8906v15.312h-4.8906zm0-5.9688h4.8906v4h-4.8906z"/>
  </symbol>
  <symbol id="e" overflow="visible">
   <path d="m14.719-14.828v3.9844c-0.65625-0.45703-1.3242-0.79688-2-1.0156-0.66797-0.21875-1.3594-0.32812-2.0781-0.32812-1.3672 0-2.4336 0.40234-3.2031 1.2031-0.76172 0.79297-1.1406 1.9062-1.1406 3.3438 0 1.4297 0.37891 2.543 1.1406 3.3438 0.76953 0.79297 1.8359 1.1875 3.2031 1.1875 0.75781 0 1.4844-0.10938 2.1719-0.32812 0.6875-0.22656 1.3203-0.56641 1.9062-1.0156v4c-0.76172 0.28125-1.5391 0.48828-2.3281 0.625-0.78125 0.14453-1.5742 0.21875-2.375 0.21875-2.7617 0-4.9219-0.70703-6.4844-2.125-1.5547-1.4141-2.3281-3.3828-2.3281-5.9062 0-2.5312 0.77344-4.5039 2.3281-5.9219 1.5625-1.4141 3.7227-2.125 6.4844-2.125 0.80078 0 1.5938 0.074219 2.375 0.21875 0.78125 0.13672 1.5547 0.35156 2.3281 0.64062z"/>
  </symbol>
  <symbol id="s" overflow="visible">
   <path d="m2.3594-21.281h4.8906v11.594l5.625-5.625h5.6875l-7.4688 7.0312 8.0625 8.2812h-5.9375l-5.9688-6.3906v6.3906h-4.8906z"/>
  </symbol>
  <symbol id="r" overflow="visible">
   <path d="m12.422-21.281v3.2188h-2.7031c-0.6875 0-1.1719 0.125-1.4531 0.375-0.27344 0.25-0.40625 0.6875-0.40625 1.3125v1.0625h4.1875v3.5h-4.1875v11.812h-4.8906v-11.812h-2.4375v-3.5h2.4375v-1.0625c0-1.6641 0.46094-2.8984 1.3906-3.7031 0.92578-0.80078 2.3672-1.2031 4.3281-1.2031z"/>
  </symbol>
  <symbol id="q" overflow="visible">
   <path d="m17.75-9.3281v9.3281h-4.9219v-7.1094c0-1.3438-0.03125-2.2656-0.09375-2.7656s-0.16797-0.86719-0.3125-1.1094c-0.1875-0.3125-0.44922-0.55469-0.78125-0.73438-0.32422-0.17578-0.69531-0.26562-1.1094-0.26562-1.0234 0-1.8242 0.39844-2.4062 1.1875-0.58594 0.78125-0.875 1.8711-0.875 3.2656v7.5312h-4.8906v-21.281h4.8906v8.2031c0.73828-0.88281 1.5195-1.5391 2.3438-1.9688 0.83203-0.42578 1.75-0.64062 2.75-0.64062 1.7695 0 3.1133 0.54688 4.0312 1.6406 0.91406 1.0859 1.375 2.6562 1.375 4.7188z"/>
  </symbol>
  <symbol id="p" overflow="visible">
   <path d="m2.5781-20.406h5.875l7.4219 14v-14h4.9844v20.406h-5.875l-7.4219-14v14h-4.9844z"/>
  </symbol>
  <symbol id="o" overflow="visible">
   <path d="m2.1875-5.9688v-9.3438h4.9219v1.5312c0 0.83594-0.007813 1.875-0.015625 3.125-0.011719 1.25-0.015625 2.0859-0.015625 2.5 0 1.2422 0.03125 2.1328 0.09375 2.6719 0.070313 0.54297 0.17969 0.93359 0.32812 1.1719 0.20703 0.32422 0.47266 0.57422 0.79688 0.75 0.32031 0.16797 0.69141 0.25 1.1094 0.25 1.0195 0 1.8203-0.39062 2.4062-1.1719 0.58203-0.78125 0.875-1.8672 0.875-3.2656v-7.5625h4.8906v15.312h-4.8906v-2.2188c-0.74219 0.89844-1.5234 1.5586-2.3438 1.9844-0.82422 0.41406-1.7344 0.625-2.7344 0.625-1.7617 0-3.1055-0.53906-4.0312-1.625-0.92969-1.082-1.3906-2.6602-1.3906-4.7344z"/>
  </symbol>
  <symbol id="n" overflow="visible">
   <path d="m17.75-9.3281v9.3281h-4.9219v-7.1406c0-1.3203-0.03125-2.2344-0.09375-2.7344s-0.16797-0.86719-0.3125-1.1094c-0.1875-0.3125-0.44922-0.55469-0.78125-0.73438-0.32422-0.17578-0.69531-0.26562-1.1094-0.26562-1.0234 0-1.8242 0.39844-2.4062 1.1875-0.58594 0.78125-0.875 1.8711-0.875 3.2656v7.5312h-4.8906v-15.312h4.8906v2.2344c0.73828-0.88281 1.5195-1.5391 2.3438-1.9688 0.83203-0.42578 1.75-0.64062 2.75-0.64062 1.7695 0 3.1133 0.54688 4.0312 1.6406 0.91406 1.0859 1.375 2.6562 1.375 4.7188z"/>
  </symbol>
  <symbol id="m" overflow="visible">
   <path d="m2.5781-20.406h8.7344c2.5938 0 4.582 0.57812 5.9688 1.7344 1.3945 1.1484 2.0938 2.7891 2.0938 4.9219 0 2.1367-0.69922 3.7812-2.0938 4.9375-1.3867 1.1562-3.375 1.7344-5.9688 1.7344h-3.4844v7.0781h-5.25zm5.25 3.8125v5.7031h2.9219c1.0195 0 1.8047-0.25 2.3594-0.75 0.5625-0.5 0.84375-1.2031 0.84375-2.1094 0-0.91406-0.28125-1.6172-0.84375-2.1094-0.55469-0.48828-1.3398-0.73438-2.3594-0.73438z"/>
  </symbol>
  <symbol id="l" overflow="visible">
   <path d="m2.3594-15.312h4.8906v15.031c0 2.0508-0.49609 3.6172-1.4844 4.7031-0.98047 1.082-2.4062 1.625-4.2812 1.625h-2.4219v-3.2188h0.85938c0.92578 0 1.5625-0.21094 1.9062-0.625 0.35156-0.41797 0.53125-1.2461 0.53125-2.4844zm0-5.9688h4.8906v4h-4.8906z"/>
  </symbol>
 </defs>
 <g>
  <path d="m89.742 301.59h12.137c0.59375 51.715 9.2734 62.914 16.613 62.914h42.797c5.2695 0 10.719-0.039062 11.234-62.914h70.977c1.1367 3.8203 3.8242 9.7305 9.6094 9.7305 1.6797 0.015626 3.3164-0.54297 4.6328-1.5859 3.1992 1.4102 6.9453 0.63281 9.3203-1.9375 1.7734 0.38281 3.6172 0.32031 5.3633-0.19141 2.9766-0.75 5.3125-3.0508 6.1133-6.0156h6c-0.21094 4.3594-0.39453 8.6445-0.55859 12.766-0.13672 12.824-1.1992 25.621-3.1836 38.293-3.9141 19.098-5.6758 31.883-7.9023 48.066l-0.79297 5.7461c-1.9453 13.977-5.3164 35.297-7.0273 45.953h-34.227c-1.6719 0-3.2539 0.74609-4.3203 2.0352l-60.086 72.855c-1.3789 1.6719-1.668 3.9883-0.74609 5.9492 0.92578 1.9648 2.8984 3.2148 5.0664 3.2148h358.48c2.168 0 4.1406-1.25 5.0664-3.2148 0.92187-1.9609 0.63281-4.2773-0.74609-5.9492l-60.086-72.855c-1.0664-1.2891-2.6484-2.0352-4.3203-2.0352h-33.93c-1.707-10.656-5.082-31.977-7.0273-45.953l-0.82422-5.9883c-2.2188-16.102-3.9766-28.82-7.875-47.824-1.9805-12.672-3.043-25.469-3.1758-38.293-0.16406-4.1211-0.34766-8.4062-0.55859-12.766l6 0.003906c0.80078 2.9609 3.1367 5.2617 6.1133 6.0156 1.7461 0.49609 3.5859 0.56641 5.3633 0.19531 2.3789 2.5625 6.1211 3.3398 9.3203 1.9297 1.3164 1.043 2.9531 1.6016 4.6328 1.5859 5.9219 0 8.6016-6.1953 9.6172-9.7305l70.668 0.003906c0.51563 62.871 5.9648 62.91 11.234 62.91h42.797c7.3398 0 16.016-11.199 16.613-62.914h12.137c3.0938 0 5.6016-2.5039 5.6016-5.5977s-2.5078-5.6016-5.6016-5.6016h-12.109c-0.60156-56.953-10.465-56.957-14.754-56.957h-42.25c-1.7734 0.023437-3.4297 0.89844-4.4414 2.3516-7.2617 8.2305-8.9102 36.629-9.1992 54.605h-69.199c-0.039063-2.7109-0.42188-5.4102-1.1289-8.0273l-0.73438-2.6289h0.003906c-1.9805-5.7617-3.1211-11.777-3.3906-17.863-0.15625-18.523-1.3398-37.023-3.5508-55.414-1.8086-11.164-4.5508-22.156-8.2031-32.863-1.832-5.8672-3.5664-11.414-4.5234-15.938-3.9219-18.48-6.0391-27.75-11.344-36.445l0.003906 0.003906c-6.4141-9.5977-16.109-16.523-27.27-19.473-8.6406-3.043-16.473-8.0234-22.891-14.559 0.48438-1.5586 0.875-3.0195 1.1992-4.2578 3.1172-11.91 3.9141-31.102-0.23047-41.328h0.003906c-2.7266-7.1289-8.2344-12.844-15.258-15.828-7.0273-2.9844-14.961-2.9844-21.984 0.003907-7.0234 2.9844-12.531 8.6992-15.258 15.828-4.1445 10.223-3.3477 29.41-0.23047 41.32 0.40234 1.5391 0.90234 2.9609 1.4141 4.3711-6.4141 6.4766-14.207 11.414-22.801 14.449-11.855 2.9453-22.332 9.8828-29.676 19.645-2.8242 5.5039-4.5195 11.516-4.9844 17.684-1.0664 7.7578-2.7109 15.426-4.9219 22.938-1.8711 6.1914-3.4023 10.898-4.6992 14.887-3.4453 9.5625-5.8086 19.48-7.0547 29.57-2.207 18.387-3.3945 36.887-3.5547 55.406-0.26563 6.0625-1.3984 12.055-3.3672 17.793l-0.75 2.7031v-0.003907c-0.70703 2.6211-1.0898 5.3164-1.1367 8.0273h-69.492c-0.28906-17.973-1.9375-46.371-9.1992-54.602-1.0117-1.457-2.668-2.332-4.4414-2.3555h-42.25c-4.2891 0-14.148 0.003906-14.754 56.957h-12.109c-3.0938 0-5.6016 2.5078-5.6016 5.6016s2.5078 5.6016 5.6016 5.6016zm70.441 32.809c-1.3164-10.191-2.3555-22.441-2.6523-32.809h3.7695c-0.12109 11.258-0.50391 23.066-1.1172 32.809zm118.86-44.008h0.003907c-0.14062-1.4805-0.17969-2.9688-0.10938-4.457 0.50781-6.0273 8.0547-49 9.8672-57.898 0.8125-3.4766 1.9102-6.8828 3.2891-10.18 2.5977-6.5859 4.7852-13.324 6.5469-20.18 2.1562-8.3555 4.1992-20.961 5.7383-31.762l0.09375 1.1094c0.089844 16.961-1.6523 33.887-5.2031 50.477-0.46875 1.6016-0.99609 3.1992-1.582 4.9609l0.003906-0.003907c-4.457 13.473-7.6602 27.328-9.5742 41.391l-0.007812 0.023438v0.023437c-0.11328 0.69922-0.22266 1.3672-0.33594 2.0938-1.2422 8.0117-2.0352 16.27-2.5938 24.406zm29.273-64.418c0.63281-1.9023 1.2031-3.625 1.6992-5.3555l0.007812 0.003906c3.1289-14.469 5.0273-29.176 5.6758-43.969 7.6016-5.3438 12.258-13.945 12.57-23.234-1.5508-15.73-6.1523-31.004-13.551-44.969 2.7031-1.4062 5.3281-2.9492 7.8711-4.625 3.6328 7.0469 6.3242 14.543 7.9961 22.293 3.2969 12.812 6.7031 26.059 19.418 26.059s16.121-13.246 19.418-26.059c1.6836-7.8047 4.4023-15.348 8.0859-22.43 2.5312 1.6797 5.1484 3.2305 7.8438 4.6406-7.4297 14-12.055 29.32-13.613 45.094 0.33984 9.4219 5.1211 18.125 12.883 23.473 0.66016 14.707 2.5508 29.336 5.6602 43.727 0.49609 1.7266 1.0664 3.4414 1.6953 5.3359 3.7188 11.129 6.4766 22.559 8.2461 34.156-33.242 4.1992-66.883 4.1602-100.12-0.10938 1.7695-11.555 4.5195-22.938 8.2148-34.027zm56.867-123.06c-2.7969 6.5977-5.0039 13.43-6.6055 20.418-2.7461 10.656-4.8242 17.645-8.5742 17.645s-5.8281-6.9883-8.5742-17.648v0.003906c-1.6914-7.5039-4.1367-14.82-7.2969-21.832 4.375 3.8711 10.031 5.9844 15.871 5.9336 5.418 0.19141 10.746-1.3984 15.18-4.5195zm-15.18 187.48h-53.594c0.45312-6.4688 1.1133-12.914 1.9961-19.293h0.003906c17.996 2.3008 36.121 3.457 54.27 3.4609 16.469 0.039062 32.918-1.1172 49.219-3.457 0.88281 6.375 1.5391 12.82 1.9961 19.289zm-66.805 117.61 0.79688-5.7578c2.2852-16.609 3.9375-28.605 7.7773-47.344v0.003906c0.83594-4.3984 1.4453-8.8398 1.8203-13.301 9.2461 3.4609 18.832 5.9375 28.598 7.3906-0.68359 0.92578-1.375 1.8594-2.0234 2.7266-4.418 4.7539-7.6953 10.445-9.5938 16.652l-0.38672 2.793c-1.8711 15.594-5.0352 31.004-9.457 46.074-2.2266 6.832-4.7852 12.961-7.2617 18.891-3.0039 6.6641-5.4766 13.559-7.3945 20.613-3.1133-1.5781-6.375-2.8477-9.7344-3.7852 1.7617-11.047 4.9727-31.406 6.8594-44.953zm66.805-83.047c5.7617 11.852 12.754 23.066 20.859 33.457 3.1055 3.5898 5.6484 7.6289 7.5469 11.977 2.1797 17.031 5.7344 33.859 10.617 50.32 2.2852 7.0117 4.8945 13.438 7.1953 19.109 1.8125 4.4648 3.4766 8.6211 4.8359 12.602l-101.99-0.003907c1.3438-3.7852 2.9648-7.7344 4.7344-11.973 2.4453-5.8477 5.2109-12.469 7.5859-19.73h-0.003906c4.6367-15.699 7.9453-31.762 9.8984-48.016l0.38281-2.7383c1.9766-4.1602 4.4922-8.043 7.4805-11.547 8.1055-10.391 15.098-21.605 20.859-33.457zm75.727 139c1.7109 5.8828 3.9648 11.594 6.7383 17.059 2.0898 3.5898 4.9922 6.6445 8.4766 8.9141 1.9297 1.4648 4.5703 3.4727 4.5898 4.8008-0.48828 0.51953-2.5156 1.3906-10.676 1.3945h-0.003907c-5.3516-0.15625-10.676-0.8125-15.902-1.9688-4.4805-1.2031-6.8086-2.9375-6.9336-5.168 0.48438-6.7578 1.3711-13.484 2.6562-20.137 0.38672-0.19141 0.79297-0.39453 1.2148-0.60156 3.1797-1.6484 6.4688-3.082 9.8398-4.293zm-158.19 17.059h-0.003906c2.7734-5.4648 5.0273-11.176 6.7383-17.059 3.3711 1.2109 6.6602 2.6445 9.8398 4.293 0.42188 0.20703 0.82422 0.41016 1.2148 0.60156 1.2852 6.6562 2.1758 13.383 2.6562 20.148-0.125 2.2188-2.457 3.9531-6.9414 5.1562-5.2227 1.1562-10.547 1.8164-15.895 1.9688-9.5391-0.003906-11.609-1.1719-11.988-1.6992 0.16797-0.91797 3.4336-3.1602 5-4.2383l-0.003906-0.003906c3.8594-2.2031 7.0898-5.3633 9.3789-9.168zm249.82 44.258h-334.72l50.848-61.656h29.16c-1.4062 4.25-3.1211 8.3906-5.1289 12.387-1.5547 2.0117-3.4922 3.6953-5.6992 4.9492-4.3906 3.0195-9.8594 6.7695-9.8594 13.48 0 12.891 16.309 12.891 23.27 12.891h0.14844-0.003906c6.2578-0.17578 12.48-0.96094 18.586-2.3516 12.684-3.4062 14.969-11.086 15.203-15.352-0.49219-8.3008-1.5469-16.559-3.1562-24.715 0.039063-0.42188 0.14844-0.85938 0.20703-1.2891h107.57c0.054688 0.42578 0.16406 0.86328 0.20313 1.2812v0.003907c-1.6055 8.1562-2.6602 16.41-3.1562 24.707 0.23437 4.2773 2.5195 11.953 15.199 15.363 6.1055 1.3906 12.332 2.1758 18.59 2.3516h0.14844c7.1211 0 21.941 0 21.941-12.891h-0.003906c-0.61328-5.6797-3.9766-10.695-8.9961-13.418-2.0547-1.3125-3.832-3.0156-5.2344-5.0117-2.0078-3.9961-3.7227-8.1367-5.1289-12.387h29.16zm-93.406-72.375c-3.457 0.92188-6.8086 2.207-9.9922 3.832-1.9062-7.2188-4.3672-14.281-7.3633-21.125-2.3398-5.7695-4.7617-11.73-6.9219-18.371v0.003906c-4.7227-15.988-8.1484-32.328-10.25-48.863-1.8984-6.207-5.1758-11.898-9.5938-16.652-0.65625-0.87891-1.3516-1.8203-2.0469-2.7578 9.875-1.4883 19.562-4.0195 28.898-7.5508 0.37891 4.5273 0.99219 9.0312 1.8398 13.492 3.8242 18.645 5.4688 30.582 7.75 47.102l0.83203 6c1.8789 13.52 5.0781 33.828 6.8477 44.891zm-18.828-138.09c0.20312 5.1328 0.42969 10.094 0.69531 14.934-10.91 4.4414-22.387 7.3477-34.098 8.6367-0.40234 0.066406-0.79687 0.17969-1.1719 0.33594-6.3242-9.4062-11.453-19.559-15.277-30.23-0.03125-0.09375-0.10938-0.15234-0.14453-0.24609v0.003906c-0.63281-1.3203-1.6953-2.3828-3.0156-3.0156-0.089844-0.039062-0.15234-0.11328-0.24609-0.14844-0.23828-0.050781-0.47656-0.082031-0.71484-0.10156-0.75391-0.21875-1.5547-0.21875-2.3086 0-0.24219 0.019532-0.48047 0.050782-0.71875 0.10156-0.09375 0.035156-0.15625 0.10938-0.24609 0.14844-0.64453 0.33984-1.2539 0.74219-1.8164 1.2031-0.45703 0.5625-0.85938 1.1719-1.1992 1.8125-0.039063 0.089844-0.11328 0.15234-0.14453 0.24219-3.832 10.691-8.9727 20.867-15.312 30.289-0.44141-0.19141-0.90234-0.32422-1.3789-0.39453-11.523-1.2617-22.816-4.0977-33.57-8.4297 0.26953-4.9062 0.5-9.9336 0.71094-15.141 0.17578-4.3711 0.36328-8.7852 0.58203-13.211h108.8c0.21484 4.4258 0.40625 8.8398 0.57812 13.211zm7.4023-48.82c-0.10547-0.6875-0.21094-1.3203-0.31641-1.9844-0.007813-0.0625 0.015625-0.11719 0.003906-0.17969-0.007812-0.054687-0.046875-0.097656-0.058594-0.15234v-0.003907c-1.9141-14.004-5.1133-27.809-9.5547-41.227-0.57812-1.7539-1.1094-3.3398-1.5742-4.9375h-0.003906c-3.543-16.594-5.2852-33.523-5.1953-50.488l0.097657-1.1211c1.5469 10.895 3.5938 23.504 5.7266 31.785 1.7617 6.8477 3.9453 13.578 6.543 20.156 1.3789 3.3047 2.4844 6.7188 3.2969 10.203 1.8164 8.875 9.3633 51.828 9.8672 57.898 0.070313 1.4883 0.035157 2.9766-0.10547 4.457h-6.1367c-0.55859-8.1367-1.3516-16.395-2.5898-24.406zm126.17 35.605h3.7656c-0.29688 10.363-1.332 22.617-2.6523 32.809-0.60938-9.7422-0.99219-21.551-1.1172-32.809zm48.281-5.6016c0 35.887-4.3516 53.332-6.8672 57.312l-32.496 0.003907c6.043-18.883 6.1406-55.246 6.1406-57.312h0.003907c0.65234-17.215-0.69141-34.449-4.0039-51.359h31.926c1.3633 2.7422 5.293 13.902 5.293 51.359zm-46.121-34.512c0.85156 9.1133 1.4453 19.938 1.6328 28.914h-3.7305c0.28125-9.1836 1.0625-19.922 2.0977-28.914zm-124.98-134.43c4.1523 6.8086 6.0195 14.438 9.9414 32.934 1.0703 5.043 2.875 10.828 4.7891 16.953l0.003906-0.003906c3.4531 10.105 6.0586 20.484 7.793 31.02 2.1172 17.75 3.2734 35.598 3.4609 53.469 0.18359 7.2617 1.4609 14.453 3.7969 21.332l0.72266 2.5859v0.003906c0.47266 1.7695 0.72266 3.5898 0.73438 5.4258-1.3242 0.46484-2.4141 1.4219-3.0586 2.6641-1.5898-0.10938-3.1523 0.45312-4.3008 1.5547-0.94922-1.0586-2.2656-1.7227-3.6836-1.8516-1.375-0.13281-2.75 0.24609-3.8555 1.0703 0.039062-0.625 0.085938-1.2422 0.125-1.7773 0.25781-2.4609 0.31641-4.9414 0.17969-7.4141-0.5625-6.7812-8.3359-50.793-10.059-59.215v-0.003906c-0.92188-4.0859-2.1953-8.0859-3.8008-11.957-2.4414-6.1875-4.5-12.52-6.1562-18.961-4.1719-16.164-8.1875-51.516-8.2266-51.871-0.18359-1.6172-1.0586-3.0703-2.3984-3.9922-1.3398-0.92578-3.0156-1.2148-4.5898-0.79297-9.2266 2.4219-11.059 11.305-12.18 22.969-1.4492-2.1484-2.2148-4.6875-2.1914-7.2812 1.5703-14.43 5.9102-28.422 12.785-41.211 8.2031 2.2539 15.348 7.3359 20.168 14.352zm-81.746-81.23c1.5977-4.3594 4.9219-7.8672 9.1875-9.707 4.2656-1.8359 9.0977-1.8359 13.363 0 4.2656 1.8359 7.5898 5.3438 9.1914 9.7031 2.7773 11.266 2.6992 23.051-0.23047 34.277-3.2383 12.367-6.8906 16.141-15.641 16.141-7.5742 0-12.836-5.4297-15.641-16.137v-0.003906c-2.9297-11.227-3.0078-23.008-0.23047-34.273zm-80.211 239.52 0.74219-2.6562 0.003906-0.003906c2.3203-6.8555 3.5898-14.023 3.7656-21.262 0.19531-17.871 1.3516-35.719 3.4688-53.469 1.1602-9.4141 3.375-18.668 6.6016-27.59 1.3164-4.0469 2.875-8.8359 4.7695-15.125 2.3711-8.0078 4.1328-16.184 5.2695-24.457 0.33594-4.6914 1.5156-9.2852 3.4805-13.562 5.7109-7.0664 13.531-12.125 22.316-14.438 6.8516 12.762 11.18 26.723 12.742 41.125 0.03125 2.4141-0.63281 4.7891-1.918 6.8359-0.97266-10.348-2.5273-17.875-11.496-21.605-1.625-0.67969-3.4766-0.55469-4.9961 0.33984-1.5195 0.89062-2.5273 2.4492-2.7266 4.1992-0.039062 0.35156-3.9805 35.039-8.1523 51.203-1.6562 6.4492-3.7148 12.789-6.1602 18.98-1.6055 3.8672-2.8789 7.8633-3.8008 11.945-1.7227 8.4375-9.4922 52.473-10.059 59.211h0.003907c-0.13672 2.4688-0.074219 4.9492 0.17969 7.4102 0.042969 0.54688 0.09375 1.1758 0.13281 1.8086h-0.003907c-1.1133-0.80859-2.4766-1.1992-3.8477-1.0977-1.4219 0.125-2.7383 0.78906-3.6875 1.8516-1.168-1.1523-2.7891-1.7305-4.4219-1.5781-0.058594 0.003906-0.11328 0.03125-0.17188 0.039062h-0.003906c-0.58203-1.1719-1.5625-2.1016-2.7656-2.6211 0.011718-1.8516 0.25781-3.6953 0.73438-5.4844zm-96.41 5.0547c0.1875-8.9766 0.77734-19.801 1.6328-28.914 1.0352 8.9883 1.8164 19.727 2.0977 28.914zm-39.191-45.762h31.926c-3.3125 16.91-4.6562 34.145-4.0039 51.359 0.19531 13.125 1.1133 26.227 2.7461 39.25 0.66797 6.082 1.7227 12.113 3.1602 18.062h-32.254c-2.5156-3.9805-6.8672-21.426-6.8672-57.312 0-37.457 3.9297-48.617 5.293-51.359z"/>
  <use x="70" y="644" xlink:href="#v"/>
  <use x="90.550781" y="644" xlink:href="#b"/>
  <use x="104.359375" y="644" xlink:href="#a"/>
  <use x="123.347656" y="644" xlink:href="#k"/>
  <use x="142.242188" y="644" xlink:href="#d"/>
  <use x="155.628906" y="644" xlink:href="#a"/>
  <use x="174.617188" y="644" xlink:href="#j"/>
  <use x="204.410156" y="644" xlink:href="#i"/>
  <use x="224.453125" y="644" xlink:href="#h"/>
  <use x="252.453125" y="644" xlink:href="#g"/>
  <use x="271.550781" y="644" xlink:href="#c"/>
  <use x="290.789062" y="644" xlink:href="#f"/>
  <use x="329.710938" y="644" xlink:href="#u"/>
  <use x="348.835938" y="644" xlink:href="#b"/>
  <use x="362.648438" y="644" xlink:href="#t"/>
  <use x="372.242188" y="644" xlink:href="#e"/>
  <use x="388.84375" y="644" xlink:href="#s"/>
  <use x="407.460938" y="644" xlink:href="#a"/>
  <use x="426.453125" y="644" xlink:href="#b"/>
  <use x="70" y="672" xlink:href="#r"/>
  <use x="82.183594" y="672" xlink:href="#b"/>
  <use x="95.992188" y="672" xlink:href="#c"/>
  <use x="115.226562" y="672" xlink:href="#f"/>
  <use x="154.152344" y="672" xlink:href="#d"/>
  <use x="167.535156" y="672" xlink:href="#q"/>
  <use x="187.46875" y="672" xlink:href="#a"/>
  <use x="216.207031" y="672" xlink:href="#p"/>
  <use x="239.640625" y="672" xlink:href="#c"/>
  <use x="258.878906" y="672" xlink:href="#o"/>
  <use x="278.8125" y="672" xlink:href="#n"/>
  <use x="308.492188" y="672" xlink:href="#m"/>
  <use x="329.015625" y="672" xlink:href="#b"/>
  <use x="342.820312" y="672" xlink:href="#c"/>
  <use x="362.058594" y="672" xlink:href="#l"/>
  <use x="371.65625" y="672" xlink:href="#a"/>
  <use x="390.648438" y="672" xlink:href="#e"/>
  <use x="407.242188" y="672" xlink:href="#d"/>
 </g>
</svg>
